<svg width="29" height="27" viewBox="0 0 29 27" fill="none" xmlns="http://www.w3.org/2000/svg">
<g clip-path="url(#clip0_777_1522)">
<path d="M21.8256 8.29466C23.8725 8.29466 25.5318 6.74045 25.5318 4.82324C25.5318 2.90602 23.8725 1.35181 21.8256 1.35181C19.7787 1.35181 18.1194 2.90602 18.1194 4.82324C18.1194 6.74045 19.7787 8.29466 21.8256 8.29466Z" stroke="black" stroke-opacity="0.55" stroke-width="3" stroke-linecap="round" stroke-linejoin="round"/>
<path d="M27.3849 16.9738V15.238C27.3849 12.3621 24.8959 10.0308 21.8255 10.0308C19.7318 10.0308 17.9084 11.1148 16.9602 12.7164" stroke="black" stroke-opacity="0.55" stroke-width="3" stroke-linecap="round" stroke-linejoin="round"/>
<path d="M7.00066 8.29466C9.04756 8.29466 10.7069 6.74045 10.7069 4.82324C10.7069 2.90602 9.04756 1.35181 7.00066 1.35181C4.95377 1.35181 3.29443 2.90602 3.29443 4.82324C3.29443 6.74045 4.95377 8.29466 7.00066 8.29466Z" stroke="black" stroke-opacity="0.55" stroke-width="3" stroke-linecap="round" stroke-linejoin="round"/>
<path d="M1.44116 16.9738V15.238C1.44116 12.3621 3.93022 10.0308 7.00063 10.0308C9.09434 10.0308 10.9177 11.1148 11.8659 12.7164" stroke="black" stroke-opacity="0.55" stroke-width="3" stroke-linecap="round" stroke-linejoin="round"/>
<path d="M14.4152 18.7051C16.4621 18.7051 18.1214 17.1509 18.1214 15.2336C18.1214 13.3164 16.4621 11.7622 14.4152 11.7622C12.3683 11.7622 10.709 13.3164 10.709 15.2336C10.709 17.1509 12.3683 18.7051 14.4152 18.7051Z" stroke="black" stroke-opacity="0.55" stroke-width="3" stroke-linecap="round" stroke-linejoin="round"/>
<path d="M19.9751 25.6478C19.9751 22.7719 17.4861 20.4407 14.4156 20.4407C11.3452 20.4407 8.8562 22.7719 8.8562 25.6478" stroke="black" stroke-opacity="0.55" stroke-width="3" stroke-linecap="round" stroke-linejoin="round"/>
</g>
<defs>
<clipPath id="clip0_777_1522">
<rect width="28.8262" height="27" fill="white"/>
</clipPath>
</defs>
</svg>
