<svg width="24" height="26" viewBox="0 0 24 26" fill="none" xmlns="http://www.w3.org/2000/svg">
<path d="M12.2381 9.23839C12.1487 8.95451 12.0107 8.69634 11.8354 8.4765C11.4624 8.00887 10.9204 7.7146 10.3172 7.7146H8.74055C7.73639 7.7146 6.92236 8.62807 6.92236 9.75489C6.92236 10.7137 7.51731 11.5432 8.35201 11.7481L10.7524 12.3373C11.6875 12.5669 12.354 13.4967 12.354 14.5709C12.354 15.8333 11.4421 16.8575 10.3172 16.8575H8.95923C8.07237 16.8575 7.31789 16.2214 7.03827 15.3336" stroke="white" stroke-width="3" stroke-linecap="round" stroke-linejoin="round"/>
<path d="M9.63818 7.71418V5.42847" stroke="white" stroke-width="3" stroke-linecap="round" stroke-linejoin="round"/>
<path d="M9.63818 19.1429V16.8572" stroke="white" stroke-width="3" stroke-linecap="round" stroke-linejoin="round"/>
<path d="M19.5681 2H5.05531C4.245 2 3.46786 2.36122 2.89489 3.00421C2.3219 3.64719 2 4.51926 2 5.42857V24.2857L5.81914 21.7143L9.63828 24.2857L13.4574 21.7143L17.2766 24.2857V4.57143C17.2766 3.88945 17.5179 3.23538 17.9477 2.75315C18.3774 2.27092 18.9604 2 19.5681 2ZM19.5681 2C20.1758 2 20.7587 2.27092 21.1884 2.75315C21.6182 3.23538 21.8595 3.88945 21.8595 4.57143V10.5714H17.2766" stroke="white" stroke-width="3" stroke-linecap="round" stroke-linejoin="round"/>
</svg>
