<svg width="29" height="25" viewBox="0 0 29 25" fill="none" xmlns="http://www.w3.org/2000/svg">
<g clip-path="url(#clip0_777_1508)">
<path d="M18.5312 13.3929C23.6485 13.3929 27.7968 11.7939 27.7968 9.82143C27.7968 7.84898 23.6485 6.25 18.5312 6.25C13.414 6.25 9.26562 7.84898 9.26562 9.82143C9.26562 11.7939 13.414 13.3929 18.5312 13.3929Z" stroke="black" stroke-opacity="0.55" stroke-width="3" stroke-linecap="round" stroke-linejoin="round"/>
<path d="M9.26562 9.82129V20.5356C9.26562 22.4999 13.3837 24.107 18.5312 24.107C23.6787 24.107 27.7968 22.4999 27.7968 20.5356V9.82129" stroke="black" stroke-opacity="0.55" stroke-width="3" stroke-linecap="round" stroke-linejoin="round"/>
<path d="M27.7968 15.1785C27.7968 17.1428 23.6787 18.7499 18.5312 18.7499C13.3837 18.7499 9.26562 17.1428 9.26562 15.1785" stroke="black" stroke-opacity="0.55" stroke-width="3" stroke-linecap="round" stroke-linejoin="round"/>
<path d="M18.3253 2.69422C15.9193 1.40649 13.1187 0.783701 10.2951 0.908494C5.16816 0.908494 1.02954 2.51564 1.02954 4.47993C1.02954 5.5335 2.22377 6.47993 4.11806 7.1585" stroke="black" stroke-opacity="0.55" stroke-width="3" stroke-linecap="round" stroke-linejoin="round"/>
<path d="M4.11806 17.8729C2.22377 17.1943 1.02954 16.2478 1.02954 15.1943V4.47998" stroke="black" stroke-opacity="0.55" stroke-width="3" stroke-linecap="round" stroke-linejoin="round"/>
<path d="M4.11806 12.5157C2.22377 11.8372 1.02954 10.8907 1.02954 9.83716" stroke="black" stroke-opacity="0.55" stroke-width="3" stroke-linecap="round" stroke-linejoin="round"/>
</g>
<defs>
<clipPath id="clip0_777_1508">
<rect width="28.8262" height="25" fill="white"/>
</clipPath>
</defs>
</svg>
